<?xml version="1.0" encoding="utf-8" standalone="no"?>
<!DOCTYPE svg PUBLIC "-//W3C//DTD SVG 1.1//EN"
  "http://www.w3.org/Graphics/SVG/1.1/DTD/svg11.dtd">
<!-- Created with matplotlib (https://matplotlib.org/) -->
<svg height="345.6pt" version="1.1" viewBox="0 0 460.8 345.6" width="460.8pt" xmlns="http://www.w3.org/2000/svg" xmlns:xlink="http://www.w3.org/1999/xlink">
 <defs>
  <style type="text/css">
*{stroke-linecap:butt;stroke-linejoin:round;}
  </style>
 </defs>
 <g id="figure_1">
  <g id="patch_1">
   <path d="M 0 345.6 
L 460.8 345.6 
L 460.8 0 
L 0 0 
z
" style="fill:#ffffff;"/>
  </g>
  <g id="axes_1">
   <g id="patch_2">
    <path d="M 57.6 307.584 
L 414.72 307.584 
L 414.72 41.472 
L 57.6 41.472 
z
" style="fill:#ffffff;"/>
   </g>
   <g id="matplotlib.axis_1">
    <g id="xtick_1">
     <g id="line2d_1">
      <defs>
       <path d="M 0 0 
L 0 3.5 
" id="m43f6dd3d8f" style="stroke:#000000;stroke-width:0.8;"/>
      </defs>
      <g>
       <use style="stroke:#000000;stroke-width:0.8;" x="93.369152" xlink:href="#m43f6dd3d8f" y="307.584"/>
      </g>
     </g>
     <g id="text_1">
      <!-- −15 -->
      <defs>
       <path d="M 10.59375 35.5 
L 73.1875 35.5 
L 73.1875 27.203125 
L 10.59375 27.203125 
z
" id="DejaVuSans-8722"/>
       <path d="M 12.40625 8.296875 
L 28.515625 8.296875 
L 28.515625 63.921875 
L 10.984375 60.40625 
L 10.984375 69.390625 
L 28.421875 72.90625 
L 38.28125 72.90625 
L 38.28125 8.296875 
L 54.390625 8.296875 
L 54.390625 0 
L 12.40625 0 
z
" id="DejaVuSans-49"/>
       <path d="M 10.796875 72.90625 
L 49.515625 72.90625 
L 49.515625 64.59375 
L 19.828125 64.59375 
L 19.828125 46.734375 
Q 21.96875 47.46875 24.109375 47.828125 
Q 26.265625 48.1875 28.421875 48.1875 
Q 40.625 48.1875 47.75 41.5 
Q 54.890625 34.8125 54.890625 23.390625 
Q 54.890625 11.625 47.5625 5.09375 
Q 40.234375 -1.421875 26.90625 -1.421875 
Q 22.3125 -1.421875 17.546875 -0.640625 
Q 12.796875 0.140625 7.71875 1.703125 
L 7.71875 11.625 
Q 12.109375 9.234375 16.796875 8.0625 
Q 21.484375 6.890625 26.703125 6.890625 
Q 35.15625 6.890625 40.078125 11.328125 
Q 45.015625 15.765625 45.015625 23.390625 
Q 45.015625 31 40.078125 35.4375 
Q 35.15625 39.890625 26.703125 39.890625 
Q 22.75 39.890625 18.8125 39.015625 
Q 14.890625 38.140625 10.796875 36.28125 
z
" id="DejaVuSans-53"/>
      </defs>
      <g transform="translate(82.816809 322.182437)scale(0.1 -0.1)">
       <use xlink:href="#DejaVuSans-8722"/>
       <use x="83.789062" xlink:href="#DejaVuSans-49"/>
       <use x="147.412109" xlink:href="#DejaVuSans-53"/>
      </g>
     </g>
    </g>
    <g id="xtick_2">
     <g id="line2d_2">
      <g>
       <use style="stroke:#000000;stroke-width:0.8;" x="141.018993" xlink:href="#m43f6dd3d8f" y="307.584"/>
      </g>
     </g>
     <g id="text_2">
      <!-- −10 -->
      <defs>
       <path d="M 31.78125 66.40625 
Q 24.171875 66.40625 20.328125 58.90625 
Q 16.5 51.421875 16.5 36.375 
Q 16.5 21.390625 20.328125 13.890625 
Q 24.171875 6.390625 31.78125 6.390625 
Q 39.453125 6.390625 43.28125 13.890625 
Q 47.125 21.390625 47.125 36.375 
Q 47.125 51.421875 43.28125 58.90625 
Q 39.453125 66.40625 31.78125 66.40625 
z
M 31.78125 74.21875 
Q 44.046875 74.21875 50.515625 64.515625 
Q 56.984375 54.828125 56.984375 36.375 
Q 56.984375 17.96875 50.515625 8.265625 
Q 44.046875 -1.421875 31.78125 -1.421875 
Q 19.53125 -1.421875 13.0625 8.265625 
Q 6.59375 17.96875 6.59375 36.375 
Q 6.59375 54.828125 13.0625 64.515625 
Q 19.53125 74.21875 31.78125 74.21875 
z
" id="DejaVuSans-48"/>
      </defs>
      <g transform="translate(130.466649 322.182437)scale(0.1 -0.1)">
       <use xlink:href="#DejaVuSans-8722"/>
       <use x="83.789062" xlink:href="#DejaVuSans-49"/>
       <use x="147.412109" xlink:href="#DejaVuSans-48"/>
      </g>
     </g>
    </g>
    <g id="xtick_3">
     <g id="line2d_3">
      <g>
       <use style="stroke:#000000;stroke-width:0.8;" x="188.668833" xlink:href="#m43f6dd3d8f" y="307.584"/>
      </g>
     </g>
     <g id="text_3">
      <!-- −5 -->
      <g transform="translate(181.29774 322.182437)scale(0.1 -0.1)">
       <use xlink:href="#DejaVuSans-8722"/>
       <use x="83.789062" xlink:href="#DejaVuSans-53"/>
      </g>
     </g>
    </g>
    <g id="xtick_4">
     <g id="line2d_4">
      <g>
       <use style="stroke:#000000;stroke-width:0.8;" x="236.318674" xlink:href="#m43f6dd3d8f" y="307.584"/>
      </g>
     </g>
     <g id="text_4">
      <!-- 0 -->
      <g transform="translate(233.137424 322.182437)scale(0.1 -0.1)">
       <use xlink:href="#DejaVuSans-48"/>
      </g>
     </g>
    </g>
    <g id="xtick_5">
     <g id="line2d_5">
      <g>
       <use style="stroke:#000000;stroke-width:0.8;" x="283.968515" xlink:href="#m43f6dd3d8f" y="307.584"/>
      </g>
     </g>
     <g id="text_5">
      <!-- 5 -->
      <g transform="translate(280.787265 322.182437)scale(0.1 -0.1)">
       <use xlink:href="#DejaVuSans-53"/>
      </g>
     </g>
    </g>
    <g id="xtick_6">
     <g id="line2d_6">
      <g>
       <use style="stroke:#000000;stroke-width:0.8;" x="331.618355" xlink:href="#m43f6dd3d8f" y="307.584"/>
      </g>
     </g>
     <g id="text_6">
      <!-- 10 -->
      <g transform="translate(325.255855 322.182437)scale(0.1 -0.1)">
       <use xlink:href="#DejaVuSans-49"/>
       <use x="63.623047" xlink:href="#DejaVuSans-48"/>
      </g>
     </g>
    </g>
    <g id="xtick_7">
     <g id="line2d_7">
      <g>
       <use style="stroke:#000000;stroke-width:0.8;" x="379.268196" xlink:href="#m43f6dd3d8f" y="307.584"/>
      </g>
     </g>
     <g id="text_7">
      <!-- 15 -->
      <g transform="translate(372.905696 322.182437)scale(0.1 -0.1)">
       <use xlink:href="#DejaVuSans-49"/>
       <use x="63.623047" xlink:href="#DejaVuSans-53"/>
      </g>
     </g>
    </g>
    <g id="text_8">
     <!-- k -->
     <defs>
      <path d="M 9.078125 75.984375 
L 18.109375 75.984375 
L 18.109375 31.109375 
L 44.921875 54.6875 
L 56.390625 54.6875 
L 27.390625 29.109375 
L 57.625 0 
L 45.90625 0 
L 18.109375 26.703125 
L 18.109375 0 
L 9.078125 0 
z
" id="DejaVuSans-107"/>
     </defs>
     <g transform="translate(233.264688 335.860562)scale(0.1 -0.1)">
      <use xlink:href="#DejaVuSans-107"/>
     </g>
    </g>
   </g>
   <g id="matplotlib.axis_2">
    <g id="ytick_1">
     <g id="line2d_8">
      <defs>
       <path d="M 0 0 
L -3.5 0 
" id="m9b937b928d" style="stroke:#000000;stroke-width:0.8;"/>
      </defs>
      <g>
       <use style="stroke:#000000;stroke-width:0.8;" x="57.6" xlink:href="#m9b937b928d" y="277.544184"/>
      </g>
     </g>
     <g id="text_9">
      <!-- 0.0 -->
      <defs>
       <path d="M 10.6875 12.40625 
L 21 12.40625 
L 21 0 
L 10.6875 0 
z
" id="DejaVuSans-46"/>
      </defs>
      <g transform="translate(34.696875 281.343402)scale(0.1 -0.1)">
       <use xlink:href="#DejaVuSans-48"/>
       <use x="63.623047" xlink:href="#DejaVuSans-46"/>
       <use x="95.410156" xlink:href="#DejaVuSans-48"/>
      </g>
     </g>
    </g>
    <g id="ytick_2">
     <g id="line2d_9">
      <g>
       <use style="stroke:#000000;stroke-width:0.8;" x="57.6" xlink:href="#m9b937b928d" y="244.77757"/>
      </g>
     </g>
     <g id="text_10">
      <!-- 0.2 -->
      <defs>
       <path d="M 19.1875 8.296875 
L 53.609375 8.296875 
L 53.609375 0 
L 7.328125 0 
L 7.328125 8.296875 
Q 12.9375 14.109375 22.625 23.890625 
Q 32.328125 33.6875 34.8125 36.53125 
Q 39.546875 41.84375 41.421875 45.53125 
Q 43.3125 49.21875 43.3125 52.78125 
Q 43.3125 58.59375 39.234375 62.25 
Q 35.15625 65.921875 28.609375 65.921875 
Q 23.96875 65.921875 18.8125 64.3125 
Q 13.671875 62.703125 7.8125 59.421875 
L 7.8125 69.390625 
Q 13.765625 71.78125 18.9375 73 
Q 24.125 74.21875 28.421875 74.21875 
Q 39.75 74.21875 46.484375 68.546875 
Q 53.21875 62.890625 53.21875 53.421875 
Q 53.21875 48.921875 51.53125 44.890625 
Q 49.859375 40.875 45.40625 35.40625 
Q 44.1875 33.984375 37.640625 27.21875 
Q 31.109375 20.453125 19.1875 8.296875 
z
" id="DejaVuSans-50"/>
      </defs>
      <g transform="translate(34.696875 248.576789)scale(0.1 -0.1)">
       <use xlink:href="#DejaVuSans-48"/>
       <use x="63.623047" xlink:href="#DejaVuSans-46"/>
       <use x="95.410156" xlink:href="#DejaVuSans-50"/>
      </g>
     </g>
    </g>
    <g id="ytick_3">
     <g id="line2d_10">
      <g>
       <use style="stroke:#000000;stroke-width:0.8;" x="57.6" xlink:href="#m9b937b928d" y="212.010957"/>
      </g>
     </g>
     <g id="text_11">
      <!-- 0.4 -->
      <defs>
       <path d="M 37.796875 64.3125 
L 12.890625 25.390625 
L 37.796875 25.390625 
z
M 35.203125 72.90625 
L 47.609375 72.90625 
L 47.609375 25.390625 
L 58.015625 25.390625 
L 58.015625 17.1875 
L 47.609375 17.1875 
L 47.609375 0 
L 37.796875 0 
L 37.796875 17.1875 
L 4.890625 17.1875 
L 4.890625 26.703125 
z
" id="DejaVuSans-52"/>
      </defs>
      <g transform="translate(34.696875 215.810176)scale(0.1 -0.1)">
       <use xlink:href="#DejaVuSans-48"/>
       <use x="63.623047" xlink:href="#DejaVuSans-46"/>
       <use x="95.410156" xlink:href="#DejaVuSans-52"/>
      </g>
     </g>
    </g>
    <g id="ytick_4">
     <g id="line2d_11">
      <g>
       <use style="stroke:#000000;stroke-width:0.8;" x="57.6" xlink:href="#m9b937b928d" y="179.244344"/>
      </g>
     </g>
     <g id="text_12">
      <!-- 0.6 -->
      <defs>
       <path d="M 33.015625 40.375 
Q 26.375 40.375 22.484375 35.828125 
Q 18.609375 31.296875 18.609375 23.390625 
Q 18.609375 15.53125 22.484375 10.953125 
Q 26.375 6.390625 33.015625 6.390625 
Q 39.65625 6.390625 43.53125 10.953125 
Q 47.40625 15.53125 47.40625 23.390625 
Q 47.40625 31.296875 43.53125 35.828125 
Q 39.65625 40.375 33.015625 40.375 
z
M 52.59375 71.296875 
L 52.59375 62.3125 
Q 48.875 64.0625 45.09375 64.984375 
Q 41.3125 65.921875 37.59375 65.921875 
Q 27.828125 65.921875 22.671875 59.328125 
Q 17.53125 52.734375 16.796875 39.40625 
Q 19.671875 43.65625 24.015625 45.921875 
Q 28.375 48.1875 33.59375 48.1875 
Q 44.578125 48.1875 50.953125 41.515625 
Q 57.328125 34.859375 57.328125 23.390625 
Q 57.328125 12.15625 50.6875 5.359375 
Q 44.046875 -1.421875 33.015625 -1.421875 
Q 20.359375 -1.421875 13.671875 8.265625 
Q 6.984375 17.96875 6.984375 36.375 
Q 6.984375 53.65625 15.1875 63.9375 
Q 23.390625 74.21875 37.203125 74.21875 
Q 40.921875 74.21875 44.703125 73.484375 
Q 48.484375 72.75 52.59375 71.296875 
z
" id="DejaVuSans-54"/>
      </defs>
      <g transform="translate(34.696875 183.043563)scale(0.1 -0.1)">
       <use xlink:href="#DejaVuSans-48"/>
       <use x="63.623047" xlink:href="#DejaVuSans-46"/>
       <use x="95.410156" xlink:href="#DejaVuSans-54"/>
      </g>
     </g>
    </g>
    <g id="ytick_5">
     <g id="line2d_12">
      <g>
       <use style="stroke:#000000;stroke-width:0.8;" x="57.6" xlink:href="#m9b937b928d" y="146.477731"/>
      </g>
     </g>
     <g id="text_13">
      <!-- 0.8 -->
      <defs>
       <path d="M 31.78125 34.625 
Q 24.75 34.625 20.71875 30.859375 
Q 16.703125 27.09375 16.703125 20.515625 
Q 16.703125 13.921875 20.71875 10.15625 
Q 24.75 6.390625 31.78125 6.390625 
Q 38.8125 6.390625 42.859375 10.171875 
Q 46.921875 13.96875 46.921875 20.515625 
Q 46.921875 27.09375 42.890625 30.859375 
Q 38.875 34.625 31.78125 34.625 
z
M 21.921875 38.8125 
Q 15.578125 40.375 12.03125 44.71875 
Q 8.5 49.078125 8.5 55.328125 
Q 8.5 64.0625 14.71875 69.140625 
Q 20.953125 74.21875 31.78125 74.21875 
Q 42.671875 74.21875 48.875 69.140625 
Q 55.078125 64.0625 55.078125 55.328125 
Q 55.078125 49.078125 51.53125 44.71875 
Q 48 40.375 41.703125 38.8125 
Q 48.828125 37.15625 52.796875 32.3125 
Q 56.78125 27.484375 56.78125 20.515625 
Q 56.78125 9.90625 50.3125 4.234375 
Q 43.84375 -1.421875 31.78125 -1.421875 
Q 19.734375 -1.421875 13.25 4.234375 
Q 6.78125 9.90625 6.78125 20.515625 
Q 6.78125 27.484375 10.78125 32.3125 
Q 14.796875 37.15625 21.921875 38.8125 
z
M 18.3125 54.390625 
Q 18.3125 48.734375 21.84375 45.5625 
Q 25.390625 42.390625 31.78125 42.390625 
Q 38.140625 42.390625 41.71875 45.5625 
Q 45.3125 48.734375 45.3125 54.390625 
Q 45.3125 60.0625 41.71875 63.234375 
Q 38.140625 66.40625 31.78125 66.40625 
Q 25.390625 66.40625 21.84375 63.234375 
Q 18.3125 60.0625 18.3125 54.390625 
z
" id="DejaVuSans-56"/>
      </defs>
      <g transform="translate(34.696875 150.27695)scale(0.1 -0.1)">
       <use xlink:href="#DejaVuSans-48"/>
       <use x="63.623047" xlink:href="#DejaVuSans-46"/>
       <use x="95.410156" xlink:href="#DejaVuSans-56"/>
      </g>
     </g>
    </g>
    <g id="ytick_6">
     <g id="line2d_13">
      <g>
       <use style="stroke:#000000;stroke-width:0.8;" x="57.6" xlink:href="#m9b937b928d" y="113.711118"/>
      </g>
     </g>
     <g id="text_14">
      <!-- 1.0 -->
      <g transform="translate(34.696875 117.510337)scale(0.1 -0.1)">
       <use xlink:href="#DejaVuSans-49"/>
       <use x="63.623047" xlink:href="#DejaVuSans-46"/>
       <use x="95.410156" xlink:href="#DejaVuSans-48"/>
      </g>
     </g>
    </g>
    <g id="ytick_7">
     <g id="line2d_14">
      <g>
       <use style="stroke:#000000;stroke-width:0.8;" x="57.6" xlink:href="#m9b937b928d" y="80.944505"/>
      </g>
     </g>
     <g id="text_15">
      <!-- 1.2 -->
      <g transform="translate(34.696875 84.743724)scale(0.1 -0.1)">
       <use xlink:href="#DejaVuSans-49"/>
       <use x="63.623047" xlink:href="#DejaVuSans-46"/>
       <use x="95.410156" xlink:href="#DejaVuSans-50"/>
      </g>
     </g>
    </g>
    <g id="ytick_8">
     <g id="line2d_15">
      <g>
       <use style="stroke:#000000;stroke-width:0.8;" x="57.6" xlink:href="#m9b937b928d" y="48.177892"/>
      </g>
     </g>
     <g id="text_16">
      <!-- 1.4 -->
      <g transform="translate(34.696875 51.977111)scale(0.1 -0.1)">
       <use xlink:href="#DejaVuSans-49"/>
       <use x="63.623047" xlink:href="#DejaVuSans-46"/>
       <use x="95.410156" xlink:href="#DejaVuSans-52"/>
      </g>
     </g>
    </g>
   </g>
   <g id="line2d_16">
    <path clip-path="url(#p603f5e0ef9)" d="M 73.832727 277.544184 
L 226.480659 277.544184 
L 226.798017 72.209909 
L 245.839331 72.209909 
L 246.156689 277.544184 
L 398.487273 277.544184 
L 398.487273 277.544184 
" style="fill:none;stroke:#bfbf00;stroke-linecap:square;stroke-width:1.5;"/>
   </g>
   <g id="line2d_17">
    <path clip-path="url(#p603f5e0ef9)" d="M 73.832727 277.544184 
L 201.409581 277.435235 
L 201.726939 277.655426 
L 202.044296 277.430811 
L 202.361644 277.660014 
L 202.679002 277.425896 
L 202.996359 277.664928 
L 203.313716 277.420817 
L 203.631074 277.670171 
L 203.948422 277.415411 
L 204.265779 277.675741 
L 204.583137 277.409513 
L 204.900494 277.681803 
L 205.217852 277.403287 
L 205.5352 277.688193 
L 205.852557 277.396734 
L 206.169915 277.695074 
L 206.487272 277.389525 
L 206.80463 277.70261 
L 207.121978 277.381825 
L 207.439335 277.710474 
L 207.756692 277.373633 
L 208.07405 277.719157 
L 208.391398 277.364622 
L 208.708755 277.728496 
L 209.026113 277.354793 
L 209.34347 277.738653 
L 209.660818 277.344307 
L 209.978176 277.749794 
L 210.295533 277.332839 
L 210.612891 277.761754 
L 210.930248 277.320224 
L 211.247596 277.775024 
L 211.564953 277.306462 
L 211.882311 277.789442 
L 212.199668 277.291389 
L 212.517016 277.80517 
L 212.834374 277.274678 
L 213.151731 277.822864 
L 213.469089 277.256165 
L 213.786446 277.84236 
L 214.103794 277.235522 
L 214.421152 277.86415 
L 214.738509 277.212422 
L 215.055867 277.888397 
L 215.373224 277.186536 
L 215.690572 277.915921 
L 216.007929 277.15721 
L 216.325287 277.946885 
L 216.642644 277.123952 
L 216.959992 277.982601 
L 217.27735 277.085942 
L 217.594707 278.023559 
L 217.912065 277.041871 
L 218.229422 278.071071 
L 218.54677 276.990428 
L 218.864128 278.126774 
L 219.181485 276.92981 
L 219.498843 278.192962 
L 219.81619 276.857559 
L 220.133548 278.272422 
L 220.450905 276.769745 
L 220.768263 278.369738 
L 221.08562 276.661615 
L 221.402968 278.491139 
L 221.720326 276.525142 
L 222.037683 278.646125 
L 222.355041 276.348038 
L 222.672389 278.850261 
L 222.989746 276.110153 
L 223.307104 279.130743 
L 223.624461 275.774786 
L 223.941818 279.538196 
L 224.259166 275.269525 
L 224.576524 280.180585 
L 224.893881 274.426276 
L 225.211239 281.334625 
L 225.528596 272.752558 
L 225.845944 283.979055 
L 226.163302 267.947989 
L 226.480659 295.488 
L 227.115365 53.568 
L 227.432722 82.50223 
L 227.75008 65.078583 
L 228.067437 77.699464 
L 228.384794 67.720228 
L 228.702142 76.029349 
L 229.0195 68.869681 
L 229.336857 75.191835 
L 229.654215 69.505681 
L 229.971563 74.693782 
L 230.28892 69.905106 
L 230.606278 74.367427 
L 230.923635 70.175594 
L 231.240993 74.140518 
L 231.558341 70.367934 
L 231.875698 73.976521 
L 232.193055 70.508339 
L 232.510413 73.855121 
L 232.827761 70.612864 
L 233.145118 73.764849 
L 233.462476 70.690521 
L 233.779833 73.698005 
L 234.097191 70.747535 
L 234.414539 73.649838 
L 234.731896 70.78751 
L 235.049254 73.617235 
L 235.366611 70.812905 
L 235.683959 73.598558 
L 236.001317 70.825356 
L 236.318674 73.592333 
L 236.636031 70.825356 
L 236.953389 73.598558 
L 237.270737 70.812905 
L 237.588094 73.617235 
L 237.905452 70.78751 
L 238.222809 73.649838 
L 238.540157 70.747535 
L 238.857515 73.698005 
L 239.174872 70.690521 
L 239.49223 73.764849 
L 239.809587 70.612864 
L 240.126935 73.855121 
L 240.444292 70.508339 
L 240.76165 73.976521 
L 241.079007 70.367934 
L 241.396355 74.140518 
L 241.713713 70.175594 
L 242.03107 74.367427 
L 242.348428 69.905106 
L 242.665785 74.693782 
L 242.983133 69.505681 
L 243.300491 75.191835 
L 243.617848 68.869681 
L 243.935206 76.029349 
L 244.252553 67.720228 
L 244.569911 77.699464 
L 244.887268 65.078583 
L 245.204626 82.50223 
L 245.521983 53.568 
L 246.156689 295.488 
L 246.474046 267.947989 
L 246.791404 283.979055 
L 247.108752 272.752558 
L 247.426109 281.334625 
L 247.743467 274.426276 
L 248.060824 280.180585 
L 248.378182 275.269525 
L 248.695529 279.538196 
L 249.012887 275.774786 
L 249.330244 279.130743 
L 249.647602 276.110153 
L 249.964959 278.850261 
L 250.282307 276.348038 
L 250.599665 278.646125 
L 250.917022 276.525142 
L 251.23438 278.491139 
L 251.551728 276.661615 
L 251.869085 278.369738 
L 252.186443 276.769745 
L 252.5038 278.272422 
L 252.821157 276.857559 
L 253.138505 278.192962 
L 253.455863 276.92981 
L 253.77322 278.126774 
L 254.090578 276.990428 
L 254.407926 278.071071 
L 254.725283 277.041871 
L 255.042641 278.023559 
L 255.359998 277.085942 
L 255.677356 277.982601 
L 255.994704 277.123952 
L 256.312061 277.946885 
L 256.629418 277.15721 
L 256.946776 277.915921 
L 257.264124 277.186536 
L 257.581481 277.888397 
L 257.898839 277.212422 
L 258.216196 277.86415 
L 258.533554 277.235522 
L 258.850902 277.84236 
L 259.168259 277.256165 
L 259.485617 277.822864 
L 259.802974 277.274678 
L 260.120332 277.80517 
L 260.43768 277.291389 
L 260.755037 277.789442 
L 261.072394 277.306462 
L 261.389752 277.775024 
L 261.7071 277.320224 
L 262.024457 277.761754 
L 262.341815 277.332839 
L 262.659172 277.749794 
L 262.97653 277.344307 
L 263.293878 277.738653 
L 263.611235 277.354793 
L 263.928593 277.728496 
L 264.24595 277.364622 
L 264.563298 277.719157 
L 264.880655 277.373633 
L 265.198013 277.710474 
L 265.51537 277.381825 
L 265.832718 277.70261 
L 266.150076 277.389525 
L 266.467433 277.695074 
L 266.784791 277.396734 
L 267.102148 277.688193 
L 267.419496 277.403287 
L 267.736854 277.681803 
L 268.054211 277.409513 
L 268.371569 277.675741 
L 268.688926 277.415411 
L 269.006274 277.670171 
L 269.323631 277.420817 
L 269.640989 277.664928 
L 269.958346 277.425896 
L 270.275704 277.660014 
L 270.593052 277.430811 
L 270.910409 277.655426 
L 271.227767 277.435235 
L 271.545124 277.651003 
L 271.862472 277.439494 
L 272.17983 277.646907 
L 272.497187 277.443426 
L 272.814545 277.642975 
L 273.131892 277.447358 
L 273.44925 277.639371 
L 273.766607 277.450799 
L 274.083965 277.63593 
L 274.401322 277.454239 
L 274.71867 277.632653 
L 275.036028 277.457352 
L 275.353385 277.629541 
L 275.670743 277.460301 
L 275.9881 277.626592 
L 276.305448 277.46325 
L 276.622806 277.623806 
L 276.940163 277.466035 
L 277.25752 277.621021 
L 277.574878 277.468493 
L 277.892226 277.618564 
L 278.209583 277.47095 
L 278.526941 277.616106 
L 278.844298 277.473408 
L 279.161646 277.613813 
L 279.479004 277.475537 
L 279.796361 277.611683 
L 280.113719 277.477667 
L 280.431067 277.609553 
L 280.748424 277.479797 
L 281.065782 277.607587 
L 281.383139 277.481763 
L 281.700496 277.605621 
L 282.017844 277.483565 
L 282.335202 277.603819 
L 282.652559 277.485367 
L 282.969917 277.60218 
L 283.287265 277.48717 
L 283.604622 277.600378 
L 283.92198 277.488808 
L 284.239337 277.598904 
L 284.556685 277.490282 
L 284.874043 277.597265 
L 285.1914 277.491921 
L 285.508757 277.595791 
L 285.826105 277.493231 
L 286.143463 277.59448 
L 286.46082 277.494706 
L 286.778178 277.593006 
L 287.095535 277.496017 
L 287.412883 277.591695 
L 287.730241 277.497327 
L 288.047598 277.590548 
L 288.364956 277.498474 
L 288.682313 277.589238 
L 288.999661 277.499621 
L 289.317019 277.588091 
L 289.634376 277.500768 
L 289.951733 277.586944 
L 290.269081 277.501915 
L 290.586439 277.585797 
L 290.903796 277.502898 
L 291.221154 277.584814 
L 291.538511 277.504044 
L 291.855859 277.583831 
L 292.173217 277.505027 
L 292.490574 277.582848 
L 292.807932 277.50601 
L 293.125289 277.581865 
L 293.442637 277.50683 
L 293.759994 277.581046 
L 294.077352 277.507813 
L 294.394709 277.580227 
L 294.712067 277.508632 
L 295.029415 277.579244 
L 295.346772 277.509451 
L 295.66413 277.578425 
L 295.981487 277.51027 
L 296.298845 277.577769 
L 296.616193 277.511089 
L 296.93355 277.57695 
L 297.250908 277.511908 
L 297.568265 277.576131 
L 297.885613 277.512564 
L 298.20297 277.575476 
L 298.520328 277.513219 
L 298.837685 277.57482 
L 299.155033 277.513874 
L 299.472391 277.574001 
L 299.789748 277.514694 
L 300.107106 277.573346 
L 300.424463 277.515185 
L 300.741811 277.57269 
L 301.059169 277.51584 
L 301.693884 277.516496 
L 302.645946 277.570888 
L 303.598009 277.518298 
L 304.550072 277.569414 
L 305.502145 277.519772 
L 306.454207 277.567775 
L 307.40628 277.521247 
L 308.358343 277.566465 
L 309.310406 277.522558 
L 310.262478 277.565154 
L 311.214541 277.523868 
L 312.166604 277.563843 
L 313.118667 277.525015 
L 314.070739 277.56286 
L 315.022811 277.525998 
L 315.974874 277.561877 
L 316.926937 277.526981 
L 317.879 277.560894 
L 318.831072 277.527964 
L 319.783135 277.559912 
L 320.735198 277.528783 
L 321.687271 277.559092 
L 322.639333 277.529602 
L 323.591406 277.558273 
L 324.543469 277.530422 
L 326.130247 277.55729 
L 327.717024 277.531568 
L 329.303802 277.556143 
L 330.89058 277.532715 
L 332.477358 277.55516 
L 334.064126 277.533698 
L 335.650904 277.554341 
L 337.237682 277.534517 
L 338.824459 277.553522 
L 340.728585 277.553031 
L 342.950078 277.535992 
L 345.171571 277.551884 
L 347.393044 277.536811 
L 349.614537 277.551065 
L 352.470745 277.537958 
L 355.326933 277.549918 
L 358.183132 277.538941 
L 361.674045 277.548935 
L 365.164958 277.539924 
L 369.290576 277.547788 
L 374.0509 277.541235 
L 380.080663 277.546313 
L 388.3319 277.54533 
L 398.487273 277.544184 
L 398.487273 277.544184 
" style="fill:none;stroke:#00bfbf;stroke-dasharray:5.55,2.4;stroke-dashoffset:0;stroke-width:1.5;"/>
   </g>
   <g id="line2d_18">
    <path clip-path="url(#p603f5e0ef9)" d="M 73.832727 277.544184 
L 201.726939 277.655262 
L 202.044296 277.430811 
L 202.361644 277.660014 
L 202.679002 277.425896 
L 202.996359 277.664928 
L 203.313716 277.420817 
L 203.631074 277.670171 
L 203.948422 277.415411 
L 204.265779 277.675741 
L 204.583137 277.409677 
L 204.900494 277.681803 
L 205.217852 277.403451 
L 205.5352 277.688193 
L 205.852557 277.396734 
L 206.169915 277.695074 
L 206.487272 277.389525 
L 206.80463 277.70261 
L 207.121978 277.381825 
L 207.439335 277.710638 
L 207.756692 277.373633 
L 208.07405 277.719157 
L 208.391398 277.364622 
L 208.708755 277.728496 
L 209.026113 277.354793 
L 209.34347 277.738653 
L 209.660818 277.344307 
L 209.978176 277.74963 
L 210.295533 277.332839 
L 210.612891 277.761754 
L 210.930248 277.320224 
L 211.247596 277.77486 
L 211.564953 277.306462 
L 211.882311 277.789278 
L 212.199668 277.291225 
L 212.517016 277.80517 
L 212.834374 277.274514 
L 213.151731 277.822864 
L 213.469089 277.256001 
L 213.786446 277.84236 
L 214.103794 277.235522 
L 214.421152 277.863986 
L 214.738509 277.212422 
L 215.055867 277.888397 
L 215.373224 277.186536 
L 215.690572 277.915921 
L 216.007929 277.157374 
L 216.325287 277.947049 
L 216.642644 277.124116 
L 216.959992 277.982765 
L 217.27735 277.085942 
L 217.594707 278.023559 
L 217.912065 277.041871 
L 218.229422 278.071234 
L 218.54677 276.990428 
L 218.864128 278.126938 
L 219.181485 276.929973 
L 219.498843 278.192962 
L 219.81619 276.857559 
L 220.133548 278.272585 
L 220.450905 276.769745 
L 220.768263 278.369738 
L 221.08562 276.661615 
L 221.402968 278.490975 
L 221.720326 276.524978 
L 222.037683 278.645797 
L 222.355041 276.347874 
L 222.672389 278.850097 
L 222.989746 276.109989 
L 223.307104 279.130579 
L 223.624461 275.774623 
L 223.941818 279.538032 
L 224.259166 275.269361 
L 224.576524 280.180421 
L 224.893881 274.426276 
L 225.211239 281.334461 
L 225.528596 272.752394 
L 225.845944 283.979055 
L 226.163302 267.947989 
L 226.480659 295.488 
L 227.115365 53.568 
L 227.432722 82.50223 
L 227.75008 65.078583 
L 228.067437 77.699464 
L 228.384794 67.720228 
L 228.702142 76.029349 
L 229.0195 68.869517 
L 229.336857 75.191671 
L 229.654215 69.505681 
L 229.971563 74.693618 
L 230.28892 69.904942 
L 230.606278 74.367427 
L 230.923635 70.175594 
L 231.240993 74.140354 
L 231.558341 70.36777 
L 231.875698 73.976357 
L 232.193055 70.508503 
L 232.510413 73.855285 
L 232.827761 70.613028 
L 233.145118 73.765013 
L 233.462476 70.690685 
L 233.779833 73.698169 
L 234.097191 70.747699 
L 234.414539 73.650166 
L 234.731896 70.787674 
L 235.049254 73.617563 
L 235.366611 70.813232 
L 235.683959 73.598722 
L 236.001317 70.825684 
L 236.318674 73.59266 
L 236.636031 70.825684 
L 236.953389 73.598722 
L 237.270737 70.813232 
L 237.588094 73.617563 
L 237.905452 70.787674 
L 238.222809 73.650166 
L 238.540157 70.747699 
L 238.857515 73.698169 
L 239.174872 70.690685 
L 239.49223 73.765013 
L 239.809587 70.613028 
L 240.126935 73.855285 
L 240.444292 70.508503 
L 240.76165 73.976357 
L 241.079007 70.36777 
L 241.396355 74.140354 
L 241.713713 70.175594 
L 242.03107 74.367427 
L 242.348428 69.904942 
L 242.665785 74.693618 
L 242.983133 69.505681 
L 243.300491 75.191671 
L 243.617848 68.869517 
L 243.935206 76.029349 
L 244.252553 67.720228 
L 244.569911 77.699464 
L 244.887268 65.078583 
L 245.204626 82.50223 
L 245.521983 53.568 
L 246.156689 295.488 
L 246.474046 267.947989 
L 246.791404 283.979055 
L 247.108752 272.752394 
L 247.426109 281.334461 
L 247.743467 274.426276 
L 248.060824 280.180421 
L 248.378182 275.269361 
L 248.695529 279.538032 
L 249.012887 275.774623 
L 249.330244 279.130579 
L 249.647602 276.109989 
L 249.964959 278.850097 
L 250.282307 276.347874 
L 250.599665 278.645797 
L 250.917022 276.524978 
L 251.23438 278.490975 
L 251.551728 276.661615 
L 251.869085 278.369738 
L 252.186443 276.769745 
L 252.5038 278.272585 
L 252.821157 276.857559 
L 253.138505 278.192962 
L 253.455863 276.929973 
L 253.77322 278.126938 
L 254.090578 276.990428 
L 254.407926 278.071234 
L 254.725283 277.041871 
L 255.042641 278.023559 
L 255.359998 277.085942 
L 255.677356 277.982765 
L 255.994704 277.124116 
L 256.312061 277.947049 
L 256.629418 277.157374 
L 256.946776 277.915921 
L 257.264124 277.186536 
L 257.581481 277.888397 
L 257.898839 277.212422 
L 258.216196 277.863986 
L 258.533554 277.235522 
L 258.850902 277.84236 
L 259.168259 277.256001 
L 259.485617 277.822864 
L 259.802974 277.274514 
L 260.120332 277.80517 
L 260.43768 277.291225 
L 260.755037 277.789278 
L 261.072394 277.306462 
L 261.389752 277.77486 
L 261.7071 277.320224 
L 262.024457 277.761754 
L 262.341815 277.332839 
L 262.659172 277.74963 
L 262.97653 277.344307 
L 263.293878 277.738653 
L 263.611235 277.354793 
L 263.928593 277.728496 
L 264.24595 277.364622 
L 264.563298 277.719157 
L 264.880655 277.373633 
L 265.198013 277.710638 
L 265.51537 277.381825 
L 265.832718 277.70261 
L 266.150076 277.389525 
L 266.467433 277.695074 
L 266.784791 277.396734 
L 267.102148 277.688193 
L 267.419496 277.403451 
L 267.736854 277.681803 
L 268.054211 277.409677 
L 268.371569 277.675741 
L 268.688926 277.415411 
L 269.006274 277.670171 
L 269.323631 277.420817 
L 269.640989 277.664928 
L 269.958346 277.425896 
L 270.275704 277.660014 
L 270.593052 277.430811 
L 270.910409 277.655262 
L 271.227767 277.435235 
L 271.545124 277.651003 
L 271.862472 277.439494 
L 272.17983 277.646907 
L 272.497187 277.443426 
L 272.814545 277.642975 
L 273.131892 277.447194 
L 273.44925 277.639371 
L 273.766607 277.450799 
L 274.083965 277.63593 
L 274.401322 277.454239 
L 274.71867 277.632653 
L 275.036028 277.457352 
L 275.353385 277.629541 
L 275.670743 277.460301 
L 275.9881 277.626592 
L 276.305448 277.46325 
L 276.622806 277.623806 
L 276.940163 277.466035 
L 277.25752 277.621021 
L 277.574878 277.468493 
L 277.892226 277.618564 
L 278.209583 277.47095 
L 278.526941 277.616106 
L 278.844298 277.473408 
L 279.161646 277.613813 
L 279.479004 277.475701 
L 279.796361 277.611683 
L 280.113719 277.477831 
L 280.431067 277.609553 
L 280.748424 277.479797 
L 281.065782 277.607587 
L 281.383139 277.481763 
L 281.700496 277.605621 
L 282.017844 277.483565 
L 282.335202 277.603819 
L 282.652559 277.485367 
L 282.969917 277.60218 
L 283.287265 277.48717 
L 283.604622 277.600378 
L 283.92198 277.488808 
L 284.239337 277.598904 
L 284.556685 277.490282 
L 284.874043 277.597265 
L 285.1914 277.491757 
L 285.508757 277.595791 
L 285.826105 277.493231 
L 286.143463 277.59448 
L 286.46082 277.494706 
L 286.778178 277.593006 
L 287.095535 277.496017 
L 287.412883 277.591695 
L 287.730241 277.497327 
L 288.047598 277.590548 
L 288.364956 277.498474 
L 288.682313 277.589238 
L 288.999661 277.499621 
L 289.317019 277.588091 
L 289.634376 277.500768 
L 289.951733 277.586944 
L 290.269081 277.501915 
L 290.586439 277.585961 
L 290.903796 277.503061 
L 291.221154 277.584814 
L 291.538511 277.504044 
L 291.855859 277.583831 
L 292.173217 277.505027 
L 292.490574 277.582848 
L 292.807932 277.50601 
L 293.125289 277.581865 
L 293.442637 277.50683 
L 293.759994 277.581046 
L 294.077352 277.507813 
L 294.394709 277.580063 
L 294.712067 277.508632 
L 295.029415 277.579244 
L 295.346772 277.509451 
L 295.66413 277.578425 
L 295.981487 277.51027 
L 296.298845 277.577605 
L 296.616193 277.511089 
L 296.93355 277.57695 
L 297.250908 277.511908 
L 297.568265 277.576131 
L 297.885613 277.512564 
L 298.20297 277.575476 
L 298.520328 277.513219 
L 298.837685 277.57482 
L 299.155033 277.513874 
L 299.472391 277.574001 
L 299.789748 277.514694 
L 300.107106 277.573346 
L 300.424463 277.515349 
L 300.741811 277.572854 
L 301.059169 277.51584 
L 301.693884 277.516496 
L 302.645946 277.571052 
L 303.598009 277.518298 
L 304.550072 277.569414 
L 305.502145 277.519772 
L 306.454207 277.567775 
L 307.40628 277.521247 
L 308.358343 277.566465 
L 309.310406 277.522558 
L 310.262478 277.565154 
L 311.214541 277.523868 
L 312.166604 277.564007 
L 313.118667 277.525015 
L 314.070739 277.56286 
L 315.022811 277.525998 
L 315.974874 277.561714 
L 316.926937 277.526981 
L 317.879 277.560894 
L 318.831072 277.527964 
L 319.783135 277.559912 
L 320.735198 277.528783 
L 321.687271 277.559092 
L 322.639333 277.529602 
L 323.591406 277.558273 
L 324.543469 277.530422 
L 326.130247 277.55729 
L 327.717024 277.531568 
L 329.303802 277.556143 
L 330.89058 277.532715 
L 332.477358 277.55516 
L 334.064126 277.533698 
L 335.650904 277.554341 
L 337.237682 277.534517 
L 338.824459 277.553522 
L 340.728585 277.553031 
L 342.950078 277.535992 
L 345.171571 277.551884 
L 347.393044 277.536975 
L 349.614537 277.551065 
L 352.470745 277.537958 
L 355.326933 277.549918 
L 358.183132 277.538941 
L 361.674045 277.548935 
L 365.164958 277.539924 
L 369.290576 277.547788 
L 374.0509 277.541235 
L 380.080663 277.546313 
L 388.3319 277.54533 
L 398.487273 277.544184 
L 398.487273 277.544184 
" style="fill:none;stroke:#bf00bf;stroke-dasharray:1.5,2.475;stroke-dashoffset:0;stroke-width:1.5;"/>
   </g>
   <g id="patch_3">
    <path d="M 57.6 307.584 
L 57.6 41.472 
" style="fill:none;stroke:#000000;stroke-linecap:square;stroke-linejoin:miter;stroke-width:0.8;"/>
   </g>
   <g id="patch_4">
    <path d="M 414.72 307.584 
L 414.72 41.472 
" style="fill:none;stroke:#000000;stroke-linecap:square;stroke-linejoin:miter;stroke-width:0.8;"/>
   </g>
   <g id="patch_5">
    <path d="M 57.6 307.584 
L 414.72 307.584 
" style="fill:none;stroke:#000000;stroke-linecap:square;stroke-linejoin:miter;stroke-width:0.8;"/>
   </g>
   <g id="patch_6">
    <path d="M 57.6 41.472 
L 414.72 41.472 
" style="fill:none;stroke:#000000;stroke-linecap:square;stroke-linejoin:miter;stroke-width:0.8;"/>
   </g>
   <g id="text_17">
    <!-- Fourier transform using GSL -->
    <defs>
     <path d="M 9.8125 72.90625 
L 51.703125 72.90625 
L 51.703125 64.59375 
L 19.671875 64.59375 
L 19.671875 43.109375 
L 48.578125 43.109375 
L 48.578125 34.8125 
L 19.671875 34.8125 
L 19.671875 0 
L 9.8125 0 
z
" id="DejaVuSans-70"/>
     <path d="M 30.609375 48.390625 
Q 23.390625 48.390625 19.1875 42.75 
Q 14.984375 37.109375 14.984375 27.296875 
Q 14.984375 17.484375 19.15625 11.84375 
Q 23.34375 6.203125 30.609375 6.203125 
Q 37.796875 6.203125 41.984375 11.859375 
Q 46.1875 17.53125 46.1875 27.296875 
Q 46.1875 37.015625 41.984375 42.703125 
Q 37.796875 48.390625 30.609375 48.390625 
z
M 30.609375 56 
Q 42.328125 56 49.015625 48.375 
Q 55.71875 40.765625 55.71875 27.296875 
Q 55.71875 13.875 49.015625 6.21875 
Q 42.328125 -1.421875 30.609375 -1.421875 
Q 18.84375 -1.421875 12.171875 6.21875 
Q 5.515625 13.875 5.515625 27.296875 
Q 5.515625 40.765625 12.171875 48.375 
Q 18.84375 56 30.609375 56 
z
" id="DejaVuSans-111"/>
     <path d="M 8.5 21.578125 
L 8.5 54.6875 
L 17.484375 54.6875 
L 17.484375 21.921875 
Q 17.484375 14.15625 20.5 10.265625 
Q 23.53125 6.390625 29.59375 6.390625 
Q 36.859375 6.390625 41.078125 11.03125 
Q 45.3125 15.671875 45.3125 23.6875 
L 45.3125 54.6875 
L 54.296875 54.6875 
L 54.296875 0 
L 45.3125 0 
L 45.3125 8.40625 
Q 42.046875 3.421875 37.71875 1 
Q 33.40625 -1.421875 27.6875 -1.421875 
Q 18.265625 -1.421875 13.375 4.4375 
Q 8.5 10.296875 8.5 21.578125 
z
M 31.109375 56 
z
" id="DejaVuSans-117"/>
     <path d="M 41.109375 46.296875 
Q 39.59375 47.171875 37.8125 47.578125 
Q 36.03125 48 33.890625 48 
Q 26.265625 48 22.1875 43.046875 
Q 18.109375 38.09375 18.109375 28.8125 
L 18.109375 0 
L 9.078125 0 
L 9.078125 54.6875 
L 18.109375 54.6875 
L 18.109375 46.1875 
Q 20.953125 51.171875 25.484375 53.578125 
Q 30.03125 56 36.53125 56 
Q 37.453125 56 38.578125 55.875 
Q 39.703125 55.765625 41.0625 55.515625 
z
" id="DejaVuSans-114"/>
     <path d="M 9.421875 54.6875 
L 18.40625 54.6875 
L 18.40625 0 
L 9.421875 0 
z
M 9.421875 75.984375 
L 18.40625 75.984375 
L 18.40625 64.59375 
L 9.421875 64.59375 
z
" id="DejaVuSans-105"/>
     <path d="M 56.203125 29.59375 
L 56.203125 25.203125 
L 14.890625 25.203125 
Q 15.484375 15.921875 20.484375 11.0625 
Q 25.484375 6.203125 34.421875 6.203125 
Q 39.59375 6.203125 44.453125 7.46875 
Q 49.3125 8.734375 54.109375 11.28125 
L 54.109375 2.78125 
Q 49.265625 0.734375 44.1875 -0.34375 
Q 39.109375 -1.421875 33.890625 -1.421875 
Q 20.796875 -1.421875 13.15625 6.1875 
Q 5.515625 13.8125 5.515625 26.8125 
Q 5.515625 40.234375 12.765625 48.109375 
Q 20.015625 56 32.328125 56 
Q 43.359375 56 49.78125 48.890625 
Q 56.203125 41.796875 56.203125 29.59375 
z
M 47.21875 32.234375 
Q 47.125 39.59375 43.09375 43.984375 
Q 39.0625 48.390625 32.421875 48.390625 
Q 24.90625 48.390625 20.390625 44.140625 
Q 15.875 39.890625 15.1875 32.171875 
z
" id="DejaVuSans-101"/>
     <path id="DejaVuSans-32"/>
     <path d="M 18.3125 70.21875 
L 18.3125 54.6875 
L 36.8125 54.6875 
L 36.8125 47.703125 
L 18.3125 47.703125 
L 18.3125 18.015625 
Q 18.3125 11.328125 20.140625 9.421875 
Q 21.96875 7.515625 27.59375 7.515625 
L 36.8125 7.515625 
L 36.8125 0 
L 27.59375 0 
Q 17.1875 0 13.234375 3.875 
Q 9.28125 7.765625 9.28125 18.015625 
L 9.28125 47.703125 
L 2.6875 47.703125 
L 2.6875 54.6875 
L 9.28125 54.6875 
L 9.28125 70.21875 
z
" id="DejaVuSans-116"/>
     <path d="M 34.28125 27.484375 
Q 23.390625 27.484375 19.1875 25 
Q 14.984375 22.515625 14.984375 16.5 
Q 14.984375 11.71875 18.140625 8.90625 
Q 21.296875 6.109375 26.703125 6.109375 
Q 34.1875 6.109375 38.703125 11.40625 
Q 43.21875 16.703125 43.21875 25.484375 
L 43.21875 27.484375 
z
M 52.203125 31.203125 
L 52.203125 0 
L 43.21875 0 
L 43.21875 8.296875 
Q 40.140625 3.328125 35.546875 0.953125 
Q 30.953125 -1.421875 24.3125 -1.421875 
Q 15.921875 -1.421875 10.953125 3.296875 
Q 6 8.015625 6 15.921875 
Q 6 25.140625 12.171875 29.828125 
Q 18.359375 34.515625 30.609375 34.515625 
L 43.21875 34.515625 
L 43.21875 35.40625 
Q 43.21875 41.609375 39.140625 45 
Q 35.0625 48.390625 27.6875 48.390625 
Q 23 48.390625 18.546875 47.265625 
Q 14.109375 46.140625 10.015625 43.890625 
L 10.015625 52.203125 
Q 14.9375 54.109375 19.578125 55.046875 
Q 24.21875 56 28.609375 56 
Q 40.484375 56 46.34375 49.84375 
Q 52.203125 43.703125 52.203125 31.203125 
z
" id="DejaVuSans-97"/>
     <path d="M 54.890625 33.015625 
L 54.890625 0 
L 45.90625 0 
L 45.90625 32.71875 
Q 45.90625 40.484375 42.875 44.328125 
Q 39.84375 48.1875 33.796875 48.1875 
Q 26.515625 48.1875 22.3125 43.546875 
Q 18.109375 38.921875 18.109375 30.90625 
L 18.109375 0 
L 9.078125 0 
L 9.078125 54.6875 
L 18.109375 54.6875 
L 18.109375 46.1875 
Q 21.34375 51.125 25.703125 53.5625 
Q 30.078125 56 35.796875 56 
Q 45.21875 56 50.046875 50.171875 
Q 54.890625 44.34375 54.890625 33.015625 
z
" id="DejaVuSans-110"/>
     <path d="M 44.28125 53.078125 
L 44.28125 44.578125 
Q 40.484375 46.53125 36.375 47.5 
Q 32.28125 48.484375 27.875 48.484375 
Q 21.1875 48.484375 17.84375 46.4375 
Q 14.5 44.390625 14.5 40.28125 
Q 14.5 37.15625 16.890625 35.375 
Q 19.28125 33.59375 26.515625 31.984375 
L 29.59375 31.296875 
Q 39.15625 29.25 43.1875 25.515625 
Q 47.21875 21.78125 47.21875 15.09375 
Q 47.21875 7.46875 41.1875 3.015625 
Q 35.15625 -1.421875 24.609375 -1.421875 
Q 20.21875 -1.421875 15.453125 -0.5625 
Q 10.6875 0.296875 5.421875 2 
L 5.421875 11.28125 
Q 10.40625 8.6875 15.234375 7.390625 
Q 20.0625 6.109375 24.8125 6.109375 
Q 31.15625 6.109375 34.5625 8.28125 
Q 37.984375 10.453125 37.984375 14.40625 
Q 37.984375 18.0625 35.515625 20.015625 
Q 33.0625 21.96875 24.703125 23.78125 
L 21.578125 24.515625 
Q 13.234375 26.265625 9.515625 29.90625 
Q 5.8125 33.546875 5.8125 39.890625 
Q 5.8125 47.609375 11.28125 51.796875 
Q 16.75 56 26.8125 56 
Q 31.78125 56 36.171875 55.265625 
Q 40.578125 54.546875 44.28125 53.078125 
z
" id="DejaVuSans-115"/>
     <path d="M 37.109375 75.984375 
L 37.109375 68.5 
L 28.515625 68.5 
Q 23.6875 68.5 21.796875 66.546875 
Q 19.921875 64.59375 19.921875 59.515625 
L 19.921875 54.6875 
L 34.71875 54.6875 
L 34.71875 47.703125 
L 19.921875 47.703125 
L 19.921875 0 
L 10.890625 0 
L 10.890625 47.703125 
L 2.296875 47.703125 
L 2.296875 54.6875 
L 10.890625 54.6875 
L 10.890625 58.5 
Q 10.890625 67.625 15.140625 71.796875 
Q 19.390625 75.984375 28.609375 75.984375 
z
" id="DejaVuSans-102"/>
     <path d="M 52 44.1875 
Q 55.375 50.25 60.0625 53.125 
Q 64.75 56 71.09375 56 
Q 79.640625 56 84.28125 50.015625 
Q 88.921875 44.046875 88.921875 33.015625 
L 88.921875 0 
L 79.890625 0 
L 79.890625 32.71875 
Q 79.890625 40.578125 77.09375 44.375 
Q 74.3125 48.1875 68.609375 48.1875 
Q 61.625 48.1875 57.5625 43.546875 
Q 53.515625 38.921875 53.515625 30.90625 
L 53.515625 0 
L 44.484375 0 
L 44.484375 32.71875 
Q 44.484375 40.625 41.703125 44.40625 
Q 38.921875 48.1875 33.109375 48.1875 
Q 26.21875 48.1875 22.15625 43.53125 
Q 18.109375 38.875 18.109375 30.90625 
L 18.109375 0 
L 9.078125 0 
L 9.078125 54.6875 
L 18.109375 54.6875 
L 18.109375 46.1875 
Q 21.1875 51.21875 25.484375 53.609375 
Q 29.78125 56 35.6875 56 
Q 41.65625 56 45.828125 52.96875 
Q 50 49.953125 52 44.1875 
z
" id="DejaVuSans-109"/>
     <path d="M 45.40625 27.984375 
Q 45.40625 37.75 41.375 43.109375 
Q 37.359375 48.484375 30.078125 48.484375 
Q 22.859375 48.484375 18.828125 43.109375 
Q 14.796875 37.75 14.796875 27.984375 
Q 14.796875 18.265625 18.828125 12.890625 
Q 22.859375 7.515625 30.078125 7.515625 
Q 37.359375 7.515625 41.375 12.890625 
Q 45.40625 18.265625 45.40625 27.984375 
z
M 54.390625 6.78125 
Q 54.390625 -7.171875 48.1875 -13.984375 
Q 42 -20.796875 29.203125 -20.796875 
Q 24.46875 -20.796875 20.265625 -20.09375 
Q 16.0625 -19.390625 12.109375 -17.921875 
L 12.109375 -9.1875 
Q 16.0625 -11.328125 19.921875 -12.34375 
Q 23.78125 -13.375 27.78125 -13.375 
Q 36.625 -13.375 41.015625 -8.765625 
Q 45.40625 -4.15625 45.40625 5.171875 
L 45.40625 9.625 
Q 42.625 4.78125 38.28125 2.390625 
Q 33.9375 0 27.875 0 
Q 17.828125 0 11.671875 7.65625 
Q 5.515625 15.328125 5.515625 27.984375 
Q 5.515625 40.671875 11.671875 48.328125 
Q 17.828125 56 27.875 56 
Q 33.9375 56 38.28125 53.609375 
Q 42.625 51.21875 45.40625 46.390625 
L 45.40625 54.6875 
L 54.390625 54.6875 
z
" id="DejaVuSans-103"/>
     <path d="M 59.515625 10.40625 
L 59.515625 29.984375 
L 43.40625 29.984375 
L 43.40625 38.09375 
L 69.28125 38.09375 
L 69.28125 6.78125 
Q 63.578125 2.734375 56.6875 0.65625 
Q 49.8125 -1.421875 42 -1.421875 
Q 24.90625 -1.421875 15.25 8.5625 
Q 5.609375 18.5625 5.609375 36.375 
Q 5.609375 54.25 15.25 64.234375 
Q 24.90625 74.21875 42 74.21875 
Q 49.125 74.21875 55.546875 72.453125 
Q 61.96875 70.703125 67.390625 67.28125 
L 67.390625 56.78125 
Q 61.921875 61.421875 55.765625 63.765625 
Q 49.609375 66.109375 42.828125 66.109375 
Q 29.4375 66.109375 22.71875 58.640625 
Q 16.015625 51.171875 16.015625 36.375 
Q 16.015625 21.625 22.71875 14.15625 
Q 29.4375 6.6875 42.828125 6.6875 
Q 48.046875 6.6875 52.140625 7.59375 
Q 56.25 8.5 59.515625 10.40625 
z
" id="DejaVuSans-71"/>
     <path d="M 53.515625 70.515625 
L 53.515625 60.890625 
Q 47.90625 63.578125 42.921875 64.890625 
Q 37.9375 66.21875 33.296875 66.21875 
Q 25.25 66.21875 20.875 63.09375 
Q 16.5 59.96875 16.5 54.203125 
Q 16.5 49.359375 19.40625 46.890625 
Q 22.3125 44.4375 30.421875 42.921875 
L 36.375 41.703125 
Q 47.40625 39.59375 52.65625 34.296875 
Q 57.90625 29 57.90625 20.125 
Q 57.90625 9.515625 50.796875 4.046875 
Q 43.703125 -1.421875 29.984375 -1.421875 
Q 24.8125 -1.421875 18.96875 -0.25 
Q 13.140625 0.921875 6.890625 3.21875 
L 6.890625 13.375 
Q 12.890625 10.015625 18.65625 8.296875 
Q 24.421875 6.59375 29.984375 6.59375 
Q 38.421875 6.59375 43.015625 9.90625 
Q 47.609375 13.234375 47.609375 19.390625 
Q 47.609375 24.75 44.3125 27.78125 
Q 41.015625 30.8125 33.5 32.328125 
L 27.484375 33.5 
Q 16.453125 35.6875 11.515625 40.375 
Q 6.59375 45.0625 6.59375 53.421875 
Q 6.59375 63.09375 13.40625 68.65625 
Q 20.21875 74.21875 32.171875 74.21875 
Q 37.3125 74.21875 42.625 73.28125 
Q 47.953125 72.359375 53.515625 70.515625 
z
" id="DejaVuSans-83"/>
     <path d="M 9.8125 72.90625 
L 19.671875 72.90625 
L 19.671875 8.296875 
L 55.171875 8.296875 
L 55.171875 0 
L 9.8125 0 
z
" id="DejaVuSans-76"/>
    </defs>
    <g transform="translate(152.019375 35.472)scale(0.12 -0.12)">
     <use xlink:href="#DejaVuSans-70"/>
     <use x="53.894531" xlink:href="#DejaVuSans-111"/>
     <use x="115.076172" xlink:href="#DejaVuSans-117"/>
     <use x="178.455078" xlink:href="#DejaVuSans-114"/>
     <use x="219.568359" xlink:href="#DejaVuSans-105"/>
     <use x="247.351562" xlink:href="#DejaVuSans-101"/>
     <use x="308.875" xlink:href="#DejaVuSans-114"/>
     <use x="349.988281" xlink:href="#DejaVuSans-32"/>
     <use x="381.775391" xlink:href="#DejaVuSans-116"/>
     <use x="420.984375" xlink:href="#DejaVuSans-114"/>
     <use x="462.097656" xlink:href="#DejaVuSans-97"/>
     <use x="523.376953" xlink:href="#DejaVuSans-110"/>
     <use x="586.755859" xlink:href="#DejaVuSans-115"/>
     <use x="638.855469" xlink:href="#DejaVuSans-102"/>
     <use x="674.060547" xlink:href="#DejaVuSans-111"/>
     <use x="735.242188" xlink:href="#DejaVuSans-114"/>
     <use x="774.605469" xlink:href="#DejaVuSans-109"/>
     <use x="872.017578" xlink:href="#DejaVuSans-32"/>
     <use x="903.804688" xlink:href="#DejaVuSans-117"/>
     <use x="967.183594" xlink:href="#DejaVuSans-115"/>
     <use x="1019.283203" xlink:href="#DejaVuSans-105"/>
     <use x="1047.066406" xlink:href="#DejaVuSans-110"/>
     <use x="1110.445312" xlink:href="#DejaVuSans-103"/>
     <use x="1173.921875" xlink:href="#DejaVuSans-32"/>
     <use x="1205.708984" xlink:href="#DejaVuSans-71"/>
     <use x="1283.199219" xlink:href="#DejaVuSans-83"/>
     <use x="1346.675781" xlink:href="#DejaVuSans-76"/>
    </g>
   </g>
   <g id="legend_1">
    <g id="patch_7">
     <path d="M 335.52 93.506375 
L 407.72 93.506375 
Q 409.72 93.506375 409.72 91.506375 
L 409.72 48.472 
Q 409.72 46.472 407.72 46.472 
L 335.52 46.472 
Q 333.52 46.472 333.52 48.472 
L 333.52 91.506375 
Q 333.52 93.506375 335.52 93.506375 
z
" style="fill:#ffffff;opacity:0.8;stroke:#cccccc;stroke-linejoin:miter;"/>
    </g>
    <g id="line2d_19">
     <path d="M 337.52 54.570438 
L 357.52 54.570438 
" style="fill:none;stroke:#bfbf00;stroke-linecap:square;stroke-width:1.5;"/>
    </g>
    <g id="line2d_20"/>
    <g id="text_18">
     <!-- Analytic -->
     <defs>
      <path d="M 34.1875 63.1875 
L 20.796875 26.90625 
L 47.609375 26.90625 
z
M 28.609375 72.90625 
L 39.796875 72.90625 
L 67.578125 0 
L 57.328125 0 
L 50.6875 18.703125 
L 17.828125 18.703125 
L 11.1875 0 
L 0.78125 0 
z
" id="DejaVuSans-65"/>
      <path d="M 9.421875 75.984375 
L 18.40625 75.984375 
L 18.40625 0 
L 9.421875 0 
z
" id="DejaVuSans-108"/>
      <path d="M 32.171875 -5.078125 
Q 28.375 -14.84375 24.75 -17.8125 
Q 21.140625 -20.796875 15.09375 -20.796875 
L 7.90625 -20.796875 
L 7.90625 -13.28125 
L 13.1875 -13.28125 
Q 16.890625 -13.28125 18.9375 -11.515625 
Q 21 -9.765625 23.484375 -3.21875 
L 25.09375 0.875 
L 2.984375 54.6875 
L 12.5 54.6875 
L 29.59375 11.921875 
L 46.6875 54.6875 
L 56.203125 54.6875 
z
" id="DejaVuSans-121"/>
      <path d="M 48.78125 52.59375 
L 48.78125 44.1875 
Q 44.96875 46.296875 41.140625 47.34375 
Q 37.3125 48.390625 33.40625 48.390625 
Q 24.65625 48.390625 19.8125 42.84375 
Q 14.984375 37.3125 14.984375 27.296875 
Q 14.984375 17.28125 19.8125 11.734375 
Q 24.65625 6.203125 33.40625 6.203125 
Q 37.3125 6.203125 41.140625 7.25 
Q 44.96875 8.296875 48.78125 10.40625 
L 48.78125 2.09375 
Q 45.015625 0.34375 40.984375 -0.53125 
Q 36.96875 -1.421875 32.421875 -1.421875 
Q 20.0625 -1.421875 12.78125 6.34375 
Q 5.515625 14.109375 5.515625 27.296875 
Q 5.515625 40.671875 12.859375 48.328125 
Q 20.21875 56 33.015625 56 
Q 37.15625 56 41.109375 55.140625 
Q 45.0625 54.296875 48.78125 52.59375 
z
" id="DejaVuSans-99"/>
     </defs>
     <g transform="translate(365.52 58.070438)scale(0.1 -0.1)">
      <use xlink:href="#DejaVuSans-65"/>
      <use x="68.408203" xlink:href="#DejaVuSans-110"/>
      <use x="131.787109" xlink:href="#DejaVuSans-97"/>
      <use x="193.066406" xlink:href="#DejaVuSans-108"/>
      <use x="220.849609" xlink:href="#DejaVuSans-121"/>
      <use x="280.029297" xlink:href="#DejaVuSans-116"/>
      <use x="319.238281" xlink:href="#DejaVuSans-105"/>
      <use x="347.021484" xlink:href="#DejaVuSans-99"/>
     </g>
    </g>
    <g id="line2d_21">
     <path d="M 337.52 69.248563 
L 357.52 69.248563 
" style="fill:none;stroke:#00bfbf;stroke-dasharray:5.55,2.4;stroke-dashoffset:0;stroke-width:1.5;"/>
    </g>
    <g id="line2d_22"/>
    <g id="text_19">
     <!-- FFTW -->
     <defs>
      <path d="M -0.296875 72.90625 
L 61.375 72.90625 
L 61.375 64.59375 
L 35.5 64.59375 
L 35.5 0 
L 25.59375 0 
L 25.59375 64.59375 
L -0.296875 64.59375 
z
" id="DejaVuSans-84"/>
      <path d="M 3.328125 72.90625 
L 13.28125 72.90625 
L 28.609375 11.28125 
L 43.890625 72.90625 
L 54.984375 72.90625 
L 70.3125 11.28125 
L 85.59375 72.90625 
L 95.609375 72.90625 
L 77.296875 0 
L 64.890625 0 
L 49.515625 63.28125 
L 33.984375 0 
L 21.578125 0 
z
" id="DejaVuSans-87"/>
     </defs>
     <g transform="translate(365.52 72.748563)scale(0.1 -0.1)">
      <use xlink:href="#DejaVuSans-70"/>
      <use x="57.519531" xlink:href="#DejaVuSans-70"/>
      <use x="113.289062" xlink:href="#DejaVuSans-84"/>
      <use x="174.373047" xlink:href="#DejaVuSans-87"/>
     </g>
    </g>
    <g id="line2d_23">
     <path d="M 337.52 83.926688 
L 357.52 83.926688 
" style="fill:none;stroke:#bf00bf;stroke-dasharray:1.5,2.475;stroke-dashoffset:0;stroke-width:1.5;"/>
    </g>
    <g id="line2d_24"/>
    <g id="text_20">
     <!-- GSL -->
     <g transform="translate(365.52 87.426688)scale(0.1 -0.1)">
      <use xlink:href="#DejaVuSans-71"/>
      <use x="77.490234" xlink:href="#DejaVuSans-83"/>
      <use x="140.966797" xlink:href="#DejaVuSans-76"/>
     </g>
    </g>
   </g>
  </g>
 </g>
 <defs>
  <clipPath id="p603f5e0ef9">
   <rect height="266.112" width="357.12" x="57.6" y="41.472"/>
  </clipPath>
 </defs>
</svg>
